# xmcd
#
# Track frame offsets:
#   150
#   9505
#   17960
#   27330
#   39473
#   49139
#   57555
#   73420
#   82661
#   92018
#   102405
#   114926
#   124398
#   137218
#   152928
#   169600
#   180114
#   192441
#   203837
#   217022
#   223585
#   231529
#
# Disc length: 3225 seconds
#
# Revision: 0
# Processed by: cddbd v1.5.2PL0 Copyright (c) Steve Scherf et al.
# Submitted via: uFREEDB ActiveX Control 1.5
#
DISCID=400c9716
DTITLE=clodoal - clodoal
DYEAR=1900
DGENRE=Alternative
TTITLE0=clodoal 1
TTITLE1=clodoal2
TTITLE2=clodoal
TTITLE3=clodoal
TTITLE4=clodoal
TTITLE5=clodoal
TTITLE6=clodoal
TTITLE7=clodoal
TTITLE8=clodoal
TTITLE9=clodoal
TTITLE10=clodoal11
TTITLE11=clodoal
TTITLE12=clodoal13
TTITLE13=clodoal14
TTITLE14=clodoal
TTITLE15=clodoal16
TTITLE16=clodoal
TTITLE17=clodoal
TTITLE18=clodoal
TTITLE19=clodoal20
TTITLE20=clodoal
TTITLE21=clodoal
EXTD=
EXTT0=
EXTT1=
EXTT2=
EXTT3=
EXTT4=
EXTT5=
EXTT6=
EXTT7=
EXTT8=
EXTT9=
EXTT10=
EXTT11=
EXTT12=
EXTT13=
EXTT14=
EXTT15=
EXTT16=
EXTT17=
EXTT18=
EXTT19=
EXTT20=
EXTT21=
PLAYORDER=
